<svg xmlns="http://www.w3.org/2000/svg" viewBox="0 0 640 360" width="640" height="360">
<rect width="640" height="360" rx="10" fill="#FFFFFF"/>
<rect x="56" y="46" width="120" height="8" rx="4" fill="#0A0A0A"/>
<rect x="56" y="66" width="220" height="20" rx="6" fill="#0A0A0A"/>
<rect x="56" y="120" width="132" height="120" rx="12" fill="#0A0A0A" opacity="0.10"/>
<rect x="72" y="146" width="46" height="26" rx="6" fill="#0A0A0A"/>
<rect x="72" y="186" width="80" height="10" rx="4" fill="#0A0A0A" opacity="0.7"/>
<rect x="72" y="204" width="60" height="8" rx="4" fill="#8C8C8C" opacity="0.4"/>
<rect x="202" y="120" width="132" height="120" rx="12" fill="#0A0A0A" opacity="0.10"/>
<rect x="218" y="146" width="46" height="26" rx="6" fill="#3D3D3D"/>
<rect x="218" y="186" width="80" height="10" rx="4" fill="#0A0A0A" opacity="0.7"/>
<rect x="218" y="204" width="60" height="8" rx="4" fill="#8C8C8C" opacity="0.4"/>
<rect x="348" y="120" width="132" height="120" rx="12" fill="#0A0A0A" opacity="0.10"/>
<rect x="364" y="146" width="46" height="26" rx="6" fill="#0A0A0A"/>
<rect x="364" y="186" width="80" height="10" rx="4" fill="#0A0A0A" opacity="0.7"/>
<rect x="364" y="204" width="60" height="8" rx="4" fill="#8C8C8C" opacity="0.4"/>
<rect x="494" y="120" width="132" height="120" rx="12" fill="#0A0A0A" opacity="0.10"/>
<rect x="510" y="146" width="46" height="26" rx="6" fill="#3D3D3D"/>
<rect x="510" y="186" width="80" height="10" rx="4" fill="#0A0A0A" opacity="0.7"/>
<rect x="510" y="204" width="60" height="8" rx="4" fill="#8C8C8C" opacity="0.4"/>
</svg>